<svg xmlns="http://www.w3.org/2000/svg" xmlns:xlink="http://www.w3.org/1999/xlink" viewBox="0 0 1047.46 1054.6">
  <defs>
    <style>
      .cls-1 {
        fill: #25aae1;
      }

      .cls-2 {
        fill: #c9c9c9;
      }

      .cls-3 {
        fill: url(#linear-gradient);
      }

      .cls-4 {
        fill: #ece810;
      }

      .cls-5 {
        font-size: 65.6px;
        font-family: MyriadPro-Regular, Myriad Pro;
      }

      .cls-6 {
        fill: #f7941e;
      }
    </style>
    <linearGradient id="linear-gradient" x1="853.46" y1="473.14" x2="-93.67" y2="2290.68" gradientTransform="matrix(1, 0.08, -0.08, 1, 153.76, -206.59)" gradientUnits="userSpaceOnUse">
      <stop offset="0" stop-color="#22b573"/>
      <stop offset="1" stop-color="#fff"/>
    </linearGradient>
  </defs>
  <title>18-24</title>
  <g id="Layer_2" data-name="Layer 2">
    <g id="Pie_Charts" data-name="Pie Charts">
      <g>
        <path class="cls-1" d="M179.13,112.82C5.85,268.75.25,489.67,0,513A535.71,535.71,0,0,0,21.35,667.23S72.16,841,219.85,949.83c45.16,33.3,95.57,56.4,95.57,56.4a537.12,537.12,0,0,0,202,48.37L519,506.12Q399,274.31,278.94,42.5A517.17,517.17,0,0,0,179.13,112.82Z"/>
        <path class="cls-2" d="M594.51,10.81c-8.7-1.86-19.75-3.95-32.65-5.75-15-2.08-26.3-2.89-35.13-3.52-13.88-1-27.13-1.9-44.9-1.4-12.07.35-21.05,1.21-29.48,2-9.51.93-29.17,3.45-46.12,6.5C362.61,16.5,311.85,32.77,305.1,35Q418,266.78,530.8,498.61,562.66,254.71,594.51,10.81Z"/>
        <path class="cls-3" d="M960.69,826.45a560.17,560.17,0,0,0,53.45-108.65A551.88,551.88,0,0,0,1046,571.38a537.61,537.61,0,0,0-1.43-96.46A544.28,544.28,0,0,0,1000.62,312c-2.68-6-5-10.92-6.55-14.15L549.19,512.9Z"/>
        <path class="cls-4" d="M540.87,1054.6a538.63,538.63,0,0,0,148.73-27.33c26.65-8.92,51.46-20.22,53.19-21a537.61,537.61,0,0,0,108.2-66A548,548,0,0,0,897.63,899a555.51,555.51,0,0,0,45.83-51.35L540,528.22Q540.44,791.41,540.87,1054.6Z"/>
        <text class="cls-5" transform="translate(599.28 756.77)">15.8%</text>
        <text class="cls-5" transform="translate(785.2 498.27)">21.6%</text>
        <text class="cls-5" transform="translate(417.21 174.53)">5.3%</text>
        <text class="cls-5" transform="translate(220.31 787.74)">46.1%</text>
        <path class="cls-6" d="M551.23,493.5,983.23,276c-4.08-6.48-9.73-15.25-16.72-25.44-11.1-16.19-23.81-34.8-43-56.87a514,514,0,0,0-57.18-56.31c-34.63-29-64.5-46-85.91-58.11-46.22-26-83.71-39.64-93.63-43.16a564.73,564.73,0,0,0-70.23-19.91Z"/>
        <text class="cls-5" transform="translate(721.52 192.61)">11.1%</text>
      </g>
    </g>
  </g>
</svg>
