<svg xmlns="http://www.w3.org/2000/svg" xmlns:xlink="http://www.w3.org/1999/xlink" viewBox="0 0 995.1 995.73">
  <defs>
    <style>
      .cls-1 {
        fill: #ece810;
      }

      .cls-2 {
        font-size: 65.6px;
      }

      .cls-2, .cls-6, .cls-8 {
        font-family: MyriadPro-Regular, Myriad Pro;
      }

      .cls-3 {
        fill: url(#linear-gradient);
      }

      .cls-4 {
        fill: #c9c9c9;
      }

      .cls-5 {
        fill: #25aae1;
      }

      .cls-6 {
        font-size: 60.87px;
      }

      .cls-7 {
        fill: #f7941e;
      }

      .cls-8 {
        font-size: 64.61px;
      }
    </style>
    <linearGradient id="linear-gradient" x1="761.62" y1="361.71" x2="35.16" y2="1755.8" gradientTransform="translate(91.64 1.29) rotate(-0.28)" gradientUnits="userSpaceOnUse">
      <stop offset="0" stop-color="#22b573"/>
      <stop offset="1" stop-color="#fff"/>
    </linearGradient>
  </defs>
  <title>35-50</title>
  <g id="Layer_2" data-name="Layer 2">
    <g id="Pie_Charts" data-name="Pie Charts">
      <g>
        <g>
          <path class="cls-1" d="M513.32,995.73c94.53-8.24,164.78-29.79,196.11-45a621,621,0,0,0,63.43-36.78c10.44-7,20.17-14.25,20.17-14.25,4.55-3.38,29.13-23.34,31.85-25.72,3.33-2.91,17.68-15.52,36.87-35.46,15-15.6,26-28.43,30.71-34,11.78-13.94,22-27.19,30.86-39.32L494.54,497.36Z"/>
          <text class="cls-2" transform="matrix(1, -0.04, 0.04, 1, 538.36, 705.75)">18.4%</text>
        </g>
        <g>
          <path class="cls-3" d="M932.07,760.78A560.66,560.66,0,0,0,976,647.94a551.76,551.76,0,0,0,19.09-148.61,537,537,0,0,0-9.72-96l-3.94-18.5L502.1,493.51Z"/>
          <text class="cls-2" transform="translate(722.93 571.67) rotate(-2.86)">12.6%</text>
        </g>
        <g>
          <path class="cls-4" d="M714.65,60.41c-7.78-4.32-17.74-9.55-29.55-15C671.38,39,660.79,34.94,652.52,31.77c-13-5-25.39-9.75-42.53-14.45-11.64-3.19-20.49-5-28.79-6.66-3-.61-23.54-4.7-46-7.25a537.17,537.17,0,0,0-96.84-2.18Q465,243.56,491.61,485.87Z"/>
          <text class="cls-2" transform="translate(472.88 177.4) rotate(20.9)">5.3%</text>
        </g>
        <g>
          <path class="cls-5" d="M166.2,120.32C5.55,261.38.34,459.16,0,491.65A496.65,496.65,0,0,0,19.81,634.71S67,795.91,204,896.93c41.91,30.9,88.68,52.33,88.68,52.33a489.2,489.2,0,0,0,49.4,19.52,500.34,500.34,0,0,0,160,25.36L481.52,485.23,430,3.23C379.91,9.62,267.6,31.28,166.2,120.32Z"/>
          <text class="cls-6" transform="translate(204.41 746.53)">50.2%</text>
        </g>
        <g>
          <path class="cls-7" d="M502.1,485.87,979.65,376.35c-3-10.46-7.13-23.74-12.82-38.88a512,512,0,0,0-72.19-130.18c-27.11-35.3-52.21-58-70.22-74.18-40.22-36.06-73.27-56.73-80.83-61.46S729.84,63.3,725.4,60.74Q613.74,273.3,502.1,485.87Z"/>
          <text class="cls-8" transform="matrix(0.98, 0.22, -0.22, 0.98, 708.96, 250.67)">13.5%</text>
        </g>
      </g>
    </g>
  </g>
</svg>
