<svg xmlns="http://www.w3.org/2000/svg" xmlns:xlink="http://www.w3.org/1999/xlink" viewBox="0 0 985.61 1001.84">
  <defs>
    <style>
      .cls-1 {
        fill: #ece810;
      }

      .cls-2 {
        font-size: 65.6px;
      }

      .cls-2, .cls-5, .cls-7, .cls-9 {
        font-family: MyriadPro-Regular, Myriad Pro;
      }

      .cls-3 {
        fill: url(#linear-gradient);
      }

      .cls-4 {
        fill: #c9c9c9;
      }

      .cls-5 {
        font-size: 51px;
      }

      .cls-6 {
        fill: #25aae1;
      }

      .cls-7 {
        font-size: 60.87px;
      }

      .cls-8 {
        fill: #f7941e;
      }

      .cls-9 {
        font-size: 64.61px;
      }
    </style>
    <linearGradient id="linear-gradient" x1="768.51" y1="305.83" x2="42.04" y2="1699.92" gradientTransform="translate(-1.89 142.22) rotate(-11.07)" gradientUnits="userSpaceOnUse">
      <stop offset="0" stop-color="#22b573"/>
      <stop offset="1" stop-color="#fff"/>
    </linearGradient>
  </defs>
  <title>50-65</title>
  <g id="Layer_2" data-name="Layer 2">
    <g id="Pie_Charts" data-name="Pie Charts">
      <g>
        <g>
          <path class="cls-1" d="M507.32,1001.84c94.53-8.24,164.78-29.78,196.11-45A621.57,621.57,0,0,0,766.86,920C777.3,913,787,905.78,787,905.78a651.55,651.55,0,0,0,51.89-44.61c10.2-9.75,18.4-18.25,23.65-23.82,6.34-6.73,16.92-18,28.31-32.09A465.9,465.9,0,0,0,937.38,735c5.93-11,12.48-24.09,19-39.27L486.92,499.5Z"/>
          <text class="cls-2" transform="matrix(1, -0.04, 0.04, 1, 532.36, 711.86)">20.8%</text>
        </g>
        <g>
          <path class="cls-3" d="M962.08,674.77a560.32,560.32,0,0,0,22-119.07A551.73,551.73,0,0,0,975,406.14a536.05,536.05,0,0,0-27.52-92.45l-7.33-17.44L487.94,497.46Z"/>
          <text class="cls-2" transform="translate(721.26 528.17) rotate(-13.65)">12.7%</text>
        </g>
        <g>
          <path class="cls-4" d="M630.78,32.87c-1.92-.65-4.31-1.44-7.08-2.32-.63-.2-5.53-1.75-11-3.33-4-1.16-11.07-3.15-23.08-6.08-10.75-2.63-16.12-3.94-23.34-5.39-14.14-2.83-25.06-4.19-29.19-4.68-7-.83-11.93-1.21-20.87-1.88-7.2-.55-15.07-1.13-25.39-1.39-5.72-.14-10.49-.14-13.86-.12q5.13,242.12,10.24,484.22Z"/>
          <text class="cls-5" transform="matrix(0.97, 0.24, -0.24, 0.97, 491.53, 86.22)">3.4%</text>
        </g>
        <g>
          <path class="cls-6" d="M167,126.25C6.7,266.34.45,462,0,497.22A496.92,496.92,0,0,0,19.51,640.33S66.3,801.62,203.11,902.94c41.84,31,88.56,52.52,88.56,52.52A488.24,488.24,0,0,0,341,975.09a500.18,500.18,0,0,0,160,25.71q-11.13-254.44-19.47-508.95Q473.61,249.3,468.21,6.65C422.5,8.92,286.65,21.71,167,126.25Z"/>
          <text class="cls-7" transform="matrix(1, 0, 0, 1, 203.78, 752.52)">52.8%</text>
        </g>
        <g>
          <path class="cls-8" d="M487.94,495.08,928.28,272.44a314.3,314.3,0,0,0-50.82-86.68c-17.73-21.33-34.68-35.73-50.3-49a506.05,506.05,0,0,0-64-46.33c-9.61-5.84-18.81-11-27.56-15.55a542.74,542.74,0,0,0-64.72-28.26c-6.43-2.39-11.78-4.25-15.38-5.48Q571.71,268.12,487.94,495.08Z"/>
          <text class="cls-9" transform="translate(667.05 216.08) rotate(3.58)">10.3%</text>
        </g>
      </g>
    </g>
  </g>
</svg>
