<svg xmlns="http://www.w3.org/2000/svg" viewBox="0 0 562.25 476.79"><defs><style>.cls-1,.cls-16,.cls-19{fill:#9f8a76;}.cls-2{isolation:isolate;}.cls-3{fill:#808580;}.cls-4{fill:#bfc5bb;}.cls-5{fill:#b4bab0;}.cls-6{fill:#cf5d5d;}.cls-7{fill:#ea9d96;}.cls-8{fill:#eb7779;}.cls-9{fill:#834546;stroke:#8a5d3b;stroke-miterlimit:10;stroke-width:0.5px;}.cls-10{fill:#5fa9af;}.cls-11{fill:#9eced0;}.cls-12{fill:#7dbdbf;}.cls-13{fill:#756b74;}.cls-14{fill:#9b889b;}.cls-15{fill:#817180;}.cls-16{font-size:31px;}.cls-16,.cls-19{font-family:Rockwell-Bold, Rockwell;font-weight:700;}.cls-17{letter-spacing:-0.02em;}.cls-18{letter-spacing:0em;}.cls-19{font-size:12px;}</style></defs><title>excellentHealth</title><g id="Layer_2" data-name="Layer 2"><g id="Layer_1-2" data-name="Layer 1"><rect class="cls-1" x="94" y="403.33" width="468.25" height="22.5"/><g class="cls-2"><polygon class="cls-3" points="154.76 421.75 141.34 407.29 142.59 192.58 156.01 207.05 154.76 421.75"/><polygon class="cls-4" points="156.01 207.05 142.59 192.58 182 192.33 195.42 206.8 156.01 207.05"/><polygon class="cls-5" points="195.42 206.8 194.17 421.51 154.76 421.75 156.01 207.05 195.42 206.8"/></g><g class="cls-2"><polygon class="cls-6" points="216.57 421.62 203.15 406.33 204.78 110.93 218.2 126.21 216.57 421.62"/><polygon class="cls-7" points="218.2 126.21 204.78 110.93 244.19 110.67 257.61 125.95 218.2 126.21"/><polygon class="cls-8" points="257.61 125.95 255.98 421.36 216.57 421.62 218.2 126.21 257.61 125.95"/></g><g class="cls-2"><polygon class="cls-9" points="409.07 421.62 395.65 418.01 397.28 348.39 410.7 352 409.07 421.62"/><polygon class="cls-9" points="410.7 352 397.28 348.39 436.69 348.33 450.11 351.94 410.7 352"/><polygon class="cls-9" points="450.11 351.94 448.48 421.56 409.07 421.62 410.7 352 450.11 351.94"/></g><g class="cls-2"><polygon class="cls-10" points="279.12 421.99 265.7 402.73 266.29 267.66 279.71 286.93 279.12 421.99"/><polygon class="cls-11" points="279.71 286.93 266.29 267.66 305.7 267.33 319.12 286.6 279.71 286.93"/><polygon class="cls-12" points="319.12 286.6 318.53 421.66 279.12 421.99 279.71 286.93 319.12 286.6"/></g><g class="cls-2"><polygon class="cls-13" points="340.38 421.78 326.96 417.43 328.14 356.41 341.56 360.76 340.38 421.78"/><polygon class="cls-14" points="341.56 360.76 328.14 356.41 367.56 356.33 380.97 360.68 341.56 360.76"/><polygon class="cls-15" points="380.97 360.68 379.79 421.7 340.38 421.78 341.56 360.76 380.97 360.68"/></g><rect class="cls-1" x="-110.92" y="204.92" width="421.83" height="12" rx="4.06" ry="4.06" transform="translate(-110.92 310.92) rotate(-90)"/><rect class="cls-1" x="68.54" y="326.21" width="31" height="8.13" rx="4.06" ry="4.06" transform="translate(168.08 660.54) rotate(-180)"/><rect class="cls-1" x="68.54" y="399.87" width="31" height="8.13" rx="4.06" ry="4.06" transform="translate(168.08 807.88) rotate(-180)"/><rect class="cls-1" x="68.54" y="250.83" width="31" height="8.13" rx="4.06" ry="4.06" transform="translate(168.08 509.79) rotate(-180)"/><rect class="cls-1" x="68.54" y="176.83" width="31" height="8.13" rx="4.06" ry="4.06" transform="translate(168.08 361.79) rotate(180)"/><rect class="cls-1" x="68.54" y="102.33" width="31" height="8.13" rx="4.06" ry="4.06" transform="translate(168.08 212.79) rotate(-180)"/><rect class="cls-1" x="68.54" y="27.08" width="31" height="8.13" rx="4.06" ry="4.06" transform="translate(168.08 62.29) rotate(-180)"/><text class="cls-16" transform="translate(0 408.33)"><tspan xml:space="preserve">  0%</tspan></text><text class="cls-16" transform="translate(146 468.33)">EXCELLENT HEA<tspan class="cls-17" x="268.39" y="0">L</tspan><tspan class="cls-18" x="287.64" y="0">TH</tspan></text><text class="cls-16" transform="translate(0 335.33)">10%</text><text class="cls-16" transform="translate(0 261.33)">20%</text><text class="cls-16" transform="translate(0 185.33)">30%</text><text class="cls-16" transform="translate(0 111.33)">40%</text><text class="cls-16" transform="translate(0 35.33)">50%</text><text class="cls-19" transform="translate(145.17 191)">27.3%</text><text class="cls-19" transform="translate(208.17 109.67)">40.8%</text><text class="cls-19" transform="translate(269.67 265.67)">17.6%</text><text class="cls-19" transform="translate(336.17 354.17)">6.9%</text><text class="cls-19" transform="translate(405.67 346.67)">7.6%</text></g></g></svg>