<svg xmlns="http://www.w3.org/2000/svg" viewBox="0 0 562.25 476.79"><defs><style>.cls-1,.cls-16,.cls-19{fill:#9f8a76;}.cls-2{isolation:isolate;}.cls-3{fill:#808580;}.cls-4{fill:#bfc5bb;}.cls-5{fill:#b4bab0;}.cls-6{fill:#cf5d5d;}.cls-7{fill:#ea9d96;}.cls-8{fill:#eb7779;}.cls-9{fill:#834546;stroke:#8a5d3b;stroke-miterlimit:10;stroke-width:0.5px;}.cls-10{fill:#5fa9af;}.cls-11{fill:#9eced0;}.cls-12{fill:#7dbdbf;}.cls-13{fill:#756b74;}.cls-14{fill:#9b889b;}.cls-15{fill:#817180;}.cls-16{font-size:31px;}.cls-16,.cls-19{font-family:Rockwell-Bold, Rockwell;font-weight:700;}.cls-17{letter-spacing:-0.02em;}.cls-18{letter-spacing:0em;}.cls-19{font-size:12px;}</style></defs><title>goodHealth</title><g id="Layer_2" data-name="Layer 2"><g id="Layer_1-2" data-name="Layer 1"><rect class="cls-1" x="94" y="403.33" width="468.25" height="22.5"/><g class="cls-2"><polygon class="cls-3" points="154.76 421.75 141.34 413.85 142.59 296.47 156.01 304.38 154.76 421.75"/><polygon class="cls-4" points="156.01 304.38 142.59 296.47 182 296.33 195.42 304.24 156.01 304.38"/><polygon class="cls-5" points="195.42 304.24 194.17 421.62 154.76 421.75 156.01 304.38 195.42 304.24"/></g><g class="cls-2"><polygon class="cls-6" points="216.57 421.62 203.15 401.85 204.78 19.67 218.2 39.44 216.57 421.62"/><polygon class="cls-7" points="218.2 39.44 204.78 19.67 244.19 19.33 257.61 39.1 218.2 39.44"/><polygon class="cls-8" points="257.61 39.1 255.98 421.28 216.57 421.62 218.2 39.44 257.61 39.1"/></g><g class="cls-2"><polygon class="cls-9" points="409.07 421.62 395.65 416.64 397.28 320.42 410.7 325.4 409.07 421.62"/><polygon class="cls-9" points="410.7 325.4 397.28 320.42 436.69 320.33 450.11 325.31 410.7 325.4"/><polygon class="cls-9" points="450.11 325.31 448.48 421.53 409.07 421.62 410.7 325.4 450.11 325.31"/></g><g class="cls-2"><polygon class="cls-10" points="279.12 421.99 265.7 406.21 266.29 295.6 279.71 311.38 279.12 421.99"/><polygon class="cls-11" points="279.71 311.38 266.29 295.6 305.7 295.33 319.12 311.11 279.71 311.38"/><polygon class="cls-12" points="319.12 311.11 318.53 421.72 279.12 421.99 279.71 311.38 319.12 311.11"/></g><g class="cls-2"><polygon class="cls-13" points="340.38 421.78 326.96 418.56 328.14 373.39 341.56 376.61 340.38 421.78"/><polygon class="cls-14" points="341.56 376.61 328.14 373.39 367.56 373.33 380.97 376.55 341.56 376.61"/><polygon class="cls-15" points="380.97 376.55 379.79 421.72 340.38 421.78 341.56 376.61 380.97 376.55"/></g><rect class="cls-1" x="-110.92" y="204.92" width="421.83" height="12" rx="4.06" ry="4.06" transform="translate(-110.92 310.92) rotate(-90)"/><rect class="cls-1" x="68.54" y="326.21" width="31" height="8.13" rx="4.06" ry="4.06" transform="translate(168.08 660.54) rotate(-180)"/><rect class="cls-1" x="68.54" y="399.87" width="31" height="8.13" rx="4.06" ry="4.06" transform="translate(168.08 807.88) rotate(-180)"/><rect class="cls-1" x="68.54" y="250.83" width="31" height="8.13" rx="4.06" ry="4.06" transform="translate(168.08 509.79) rotate(-180)"/><rect class="cls-1" x="68.54" y="176.83" width="31" height="8.13" rx="4.06" ry="4.06" transform="translate(168.08 361.79) rotate(180)"/><rect class="cls-1" x="68.54" y="102.33" width="31" height="8.13" rx="4.06" ry="4.06" transform="translate(168.08 212.79) rotate(-180)"/><rect class="cls-1" x="68.54" y="27.08" width="31" height="8.13" rx="4.06" ry="4.06" transform="translate(168.08 62.29) rotate(-180)"/><text class="cls-16" transform="translate(0 408.33)"><tspan xml:space="preserve">  0%</tspan></text><text class="cls-16" transform="translate(172 468.33)">GOOD HEA<tspan class="cls-17" x="177.6" y="0">L</tspan><tspan class="cls-18" x="196.85" y="0">TH</tspan></text><text class="cls-16" transform="translate(0 335.33)">10%</text><text class="cls-16" transform="translate(0 261.33)">20%</text><text class="cls-16" transform="translate(0 185.33)">30%</text><text class="cls-16" transform="translate(0 111.33)">40%</text><text class="cls-16" transform="translate(0 35.33)">50%</text><text class="cls-19" transform="translate(148.17 295)">15.4%</text><text class="cls-19" transform="translate(208.83 18.33)">52.6%</text><text class="cls-19" transform="translate(271.67 292.67)">15.0%</text><text class="cls-19" transform="translate(338.17 372.17)">4.2%</text><text class="cls-19" transform="translate(403.67 318.67)">12.8%</text></g></g></svg>