<svg xmlns="http://www.w3.org/2000/svg" viewBox="0 0 1005.61 1008.51">
  <defs>
    <style>
      .cls-1 {
        fill: #25aae1;
      }

      .cls-2 {
        fill: #c9c9c9;
      }

      .cls-3 {
        fill: #1a8e72;
      }

      .cls-4 {
        fill: #ece810;
      }

      .cls-5 {
        fill: #f7941e;
      }

      .cls-6 {
        font-size: 65.6px;
        font-family: MyriadPro-Regular, Myriad Pro;
      }
    </style>
  </defs>
  <g id="Layer_2" data-name="Layer 2">
    <g id="Pie_Charts" data-name="Pie Charts">
      <g>
        <g id="graph_1" data-name="graph 1">
          <path class="cls-1" d="M888.9,828C982,716.79,999.56,596.64,1003.79,546.89c12.44-146.18-42.12-254.81-64.34-294.12C912.13,208,869.79,152.54,805.56,104.41a510.46,510.46,0,0,0-50.9-33.59A524.78,524.78,0,0,0,502.86,0l.76,503.23Q601.29,735.7,698.94,968.17C741.44,950.18,820.18,910.12,888.9,828Z"/>
          <path class="cls-2" d="M538.69,1007.49a679.59,679.59,0,0,0,68.76-10.55c16.72-3.46,34.2-7.13,56.71-14.89,12.65-4.36,24.25-9.08,34.78-13.88Q601.18,736,503.42,503.84,521.06,755.66,538.69,1007.49Z"/>
          <path class="cls-3" d="M45.58,291.83A516.42,516.42,0,0,0,7.28,417.19,525.35,525.35,0,0,0,1.84,548.6a499.45,499.45,0,0,0,14.63,86.12A451.06,451.06,0,0,0,42,706.21a428,428,0,0,0,26.55,49L503.42,503.84Z"/>
          <path class="cls-4" d="M502.86,0A507.74,507.74,0,0,0,373.41,17.62,516.55,516.55,0,0,0,117.58,180a504.19,504.19,0,0,0-72,111.83l457.84,212Q503.15,251.92,502.86,0Z"/>
          <path class="cls-5" d="M503.42,503.84,68.56,755.23c23.4,41.16,59,91.39,111.32,135.83a478.61,478.61,0,0,0,72,50.56c34.44,19.53,63,29.8,81.19,36.25a549.94,549.94,0,0,0,82.72,22.47,506,506,0,0,0,122.9,7.15Q521.05,755.67,503.42,503.84Z"/>
        </g>
        <g id="graph_1_text" data-name="graph 1 text">
          <text class="cls-6" transform="translate(219.75 858.57)">17.4%</text>
          <text class="cls-6" transform="translate(103.3 539.14)">15.3%</text>
          <text class="cls-6" transform="translate(538.69 952.81)">5.3%</text>
          <text class="cls-6" transform="translate(690.14 385.78)">43.6%</text>
          <text class="cls-6" transform="translate(251.71 199.92)">18.4%</text>
        </g>
      </g>
    </g>
  </g>
</svg>
