<svg xmlns="http://www.w3.org/2000/svg" viewBox="0 0 1010.2 1008.57">
  <defs>
    <style>
      .cls-1 {
        fill: #25aae1;
      }

      .cls-2 {
        fill: #c9c9c9;
      }

      .cls-3 {
        fill: #1a8e72;
      }

      .cls-4 {
        fill: #ece810;
      }

      .cls-5 {
        fill: #f7941e;
      }

      .cls-6 {
        font-size: 65.6px;
        font-family: MyriadPro-Regular, Myriad Pro;
      }
    </style>
  </defs>
  <g id="Layer_2" data-name="Layer 2">
    <g id="Pie_Charts" data-name="Pie Charts">
      <g>
        <g id="graph_1" data-name="graph 1">
          <path class="cls-1" d="M893.49,828c95-113,111.24-238.17,114.89-281.11,12.44-146.18-42.12-254.81-64.34-294.12C916.71,208,874.38,152.54,810.15,104.41a509.4,509.4,0,0,0-50.91-33.59A524.22,524.22,0,0,0,505.74,0c.47,284.8.48,400.32.36,444.06,0,9-.11,30.57-1,59-1.63,50.06-4.76,86.91-6.07,103-1.1,13.54-3.91,66.44-9.53,172.25-2.87,54-6.91,132.06-11.58,230.13C510.77,1009.15,740.56,1010,893.49,828Z"/>
          <path class="cls-2" d="M350.23,983a393.43,393.43,0,0,0,127.66,25.53l27.18-505.41Q427.66,743,350.23,983Z"/>
          <path class="cls-3" d="M35.68,322.19a471.5,471.5,0,0,0-20.36,61.57,521.74,521.74,0,0,0-14,161.09A451.52,451.52,0,0,0,13.33,619.8a429.29,429.29,0,0,0,17.15,53L503.93,505.05Z"/>
          <path class="cls-4" d="M505.74,0A507.68,507.68,0,0,0,376.13,16.31,514.59,514.59,0,0,0,216.83,89c-56.56,38.55-90.68,78.25-98.16,87.1a459.78,459.78,0,0,0-83,146.09L506.15,506.36Q505.94,253.19,505.74,0Z"/>
          <path class="cls-5" d="M505.07,503.08,30.57,672.49a483.85,483.85,0,0,0,28.9,67.38,474.1,474.1,0,0,0,47.65,74c24.54,31.07,47.11,51.33,61.55,64.18a549.4,549.4,0,0,0,68.16,52,493.66,493.66,0,0,0,113.4,53Q427.65,743,505.07,503.08Z"/>
        </g>
        <g id="graph_1-2" data-name="graph 1">
          <text class="cls-6" transform="translate(187.04 802.36)">14.6%</text>
          <text class="cls-6" transform="translate(107.89 539.14)">11.4%</text>
          <text class="cls-6" transform="translate(354.79 983.78)">4.2%</text>
          <text class="cls-6" transform="translate(694.73 508.17)">51.0%</text>
          <text class="cls-6" transform="translate(256.3 199.92)">18.8%</text>
        </g>
      </g>
    </g>
  </g>
</svg>
